<?xml version="1.0" encoding="utf-8"?>
<!-- Generator: Adobe Illustrator 23.0.1, SVG Export Plug-In . SVG Version: 6.00 Build 0)  -->
<svg version="1.1" id="Warstwa_1" xmlns="http://www.w3.org/2000/svg" xmlns:xlink="http://www.w3.org/1999/xlink" x="0px" y="0px"
	 viewBox="0 0 1001.1 890.7" style="enable-background:new 0 0 1001.1 890.7;" xml:space="preserve">
<style type="text/css">
	.st0{fill:none;}
	.st1{fill:#00D8FF;}
	.st2{fill:none;stroke:#00D8FF;stroke-width:24;stroke-miterlimit:10;}
	.st3{fill:#FFFFFF;}
	.st4{font-family:'ArialMT';}
	.st5{font-size:28.319px;}
</style>
<g>
	<title>background</title>
	<rect id="canvas_background" x="-1" y="-1" class="st0" width="582" height="402"/>
</g>
<g>
	<title>Layer 1</title>
	<circle id="circle836" class="st1" cx="504.6" cy="444.5" r="89.6"/>
	<path id="path838" class="st2" d="M504.6,262.4c120.2,0,232,17.3,316.2,46.3c101.5,34.9,163.9,87.9,163.9,135.9
		c0,50-66.1,106.2-175.1,142.4c-82.4,27.3-190.8,41.5-305,41.5c-117,0-227.9-13.4-311.2-41.8c-105.4-36-168.9-93-168.9-142
		c0-47.6,59.6-100.1,159.6-135C268.7,280,383.2,262.4,504.6,262.4L504.6,262.4z"/>
	<path id="path840" class="st2" d="M346.1,354c60.1-104.2,130.8-192.3,198-250.8c81-70.5,158-98,199.6-74.1
		c43.3,25,59,110.4,35.8,222.8c-17.5,85-59.3,186-116.4,284.9c-58.4,101.3-125.4,190.7-191.7,248.6c-83.9,73.3-165,99.8-207.4,75.4
		c-41.2-23.8-57-101.6-37.2-205.7C243.5,567.1,285.4,459.1,346.1,354L346.1,354z"/>
	<path id="path842" class="st2" d="M346.2,537.1C286,433,244.9,327.7,227.8,240.2c-20.6-105.3-6-185.9,35.5-209.9
		c43.3-25,125.1,4,210.9,80.2c64.9,57.6,131.6,144.3,188.8,243.1C721.6,455,765.5,557.6,782.7,644c21.6,109.3,4.1,192.8-38.3,217.3
		c-41.2,23.8-116.5-1.4-196.8-70.5C479.7,732.4,407.1,642.1,346.2,537.1L346.2,537.1z"/>
	<path id="svg_2" class="st0" d="M903.7,167.1C0,0,0,0,0,0L903.7,167.1v1.3l1.3,1.3"/>
	<line id="svg_5" class="st0" x1="811.2" y1="158.4" x2="858.7" y2="70.9"/>
	<text id="svg_6" transform="matrix(0.7342 0.679 -0.679 0.7342 826.1017 84.9505)" class="st3 st4 st5">HELP!!!</text>
</g>
</svg>
